<svg width="32" height="32" viewBox="0 0 32 32" fill="none" xmlns="http://www.w3.org/2000/svg">
<g id="Social media logo">
<path id="Shape" d="M4.66663 6.27539C4.66663 5.38683 5.38695 4.6665 6.27551 4.6665H25.7244C26.613 4.6665 27.3333 5.38683 27.3333 6.27539V25.7242C27.3333 26.6128 26.613 27.3331 25.7244 27.3331H6.27551C5.38695 27.3331 4.66663 26.6128 4.66663 25.7242V6.27539Z" fill="#0C217A"/>
<g id="Vector">
<path d="M9.75429 11.7061C10.8403 11.7061 11.7206 10.8257 11.7206 9.73977C11.7206 8.65379 10.8403 7.77344 9.75429 7.77344C8.66832 7.77344 7.78796 8.65379 7.78796 9.73977C7.78796 10.8257 8.66832 11.7061 9.75429 11.7061Z" fill="white"/>
<path d="M13.5214 13.1593H16.7803V14.6522C16.7803 14.6522 17.6646 12.8835 20.0707 12.8835C22.2171 12.8835 23.9952 13.9409 23.9952 17.1638V23.96H20.6181V17.9873C20.6181 16.0861 19.6031 15.877 18.8296 15.877C17.2244 15.877 16.9496 17.2615 16.9496 18.2353V23.96H13.5214V13.1593Z" fill="white"/>
<path d="M8.04019 13.1593H11.4684V23.96H8.04019V13.1593Z" fill="white"/>
</g>
</g>
</svg>
