<svg width="24" height="24" viewBox="0 0 24 24" fill="none" xmlns="http://www.w3.org/2000/svg">
<path d="M12.0005 0.363525C8.84036 0.363525 8.44377 0.377344 7.20259 0.433829C5.96384 0.490556 5.11829 0.686677 4.37843 0.974435C3.61312 1.27165 2.96393 1.66922 2.31716 2.31625C1.66991 2.96304 1.27235 3.61225 0.974173 4.37734C0.685697 5.11746 0.48934 5.96328 0.433584 7.20159C0.37807 8.4428 0.363525 8.83965 0.363525 11.9999C0.363525 15.1601 0.377586 15.5555 0.433827 16.7967C0.490794 18.0355 0.68691 18.8811 0.974416 19.621C1.27186 20.3863 1.66943 21.0355 2.31644 21.6823C2.96296 22.3296 3.61215 22.7281 4.37698 23.0253C5.11732 23.3131 5.96311 23.5092 7.20162 23.5659C8.4428 23.6224 8.83915 23.6363 11.9991 23.6363C15.1594 23.6363 15.5548 23.6224 16.796 23.5659C18.0347 23.5092 18.8813 23.3131 19.6216 23.0253C20.3867 22.7281 21.0349 22.3296 21.6814 21.6823C22.3287 21.0355 22.7262 20.3863 23.0244 19.6212C23.3105 18.8811 23.5068 18.0353 23.565 16.797C23.6208 15.5558 23.6353 15.1601 23.6353 11.9999C23.6353 8.83965 23.6208 8.44304 23.565 7.20183C23.5068 5.96304 23.3105 5.11746 23.0244 4.37759C22.7262 3.61225 22.3287 2.96304 21.6814 2.31625C21.0342 1.66898 20.3869 1.2714 19.6209 0.974435C18.8791 0.686677 18.0331 0.490556 16.7943 0.433829C15.5531 0.377344 15.158 0.363525 11.9969 0.363525H12.0005ZM10.9567 2.46049C11.2665 2.46001 11.6122 2.46049 12.0005 2.46049C15.1073 2.46049 15.4756 2.47165 16.7024 2.5274C17.8369 2.57928 18.4527 2.76886 18.8628 2.92813C19.4059 3.13904 19.793 3.39116 20.2 3.79843C20.6073 4.20571 20.8594 4.59359 21.0708 5.13662C21.23 5.54631 21.4199 6.16207 21.4715 7.29662C21.5272 8.52328 21.5394 8.89177 21.5394 11.9972C21.5394 15.1027 21.5272 15.4712 21.4715 16.6978C21.4196 17.8324 21.23 18.4481 21.0708 18.8578C20.8599 19.4009 20.6073 19.7875 20.2 20.1946C19.7928 20.6018 19.4061 20.8539 18.8628 21.0649C18.4532 21.2249 17.8369 21.4139 16.7024 21.4658C15.4758 21.5216 15.1073 21.5337 12.0005 21.5337C8.89345 21.5337 8.52522 21.5216 7.29859 21.4658C6.16408 21.4135 5.54834 21.2239 5.13793 21.0646C4.59491 20.8537 4.20705 20.6016 3.79978 20.1943C3.39252 19.787 3.14041 19.4001 2.92902 18.8569C2.76976 18.4472 2.57994 17.8314 2.52831 16.6969C2.47255 15.4702 2.4614 15.1017 2.4614 11.9943C2.4614 8.88692 2.47255 8.52037 2.52831 7.29371C2.58019 6.15916 2.76976 5.5434 2.92902 5.13322C3.13993 4.59019 3.39252 4.20231 3.79978 3.79504C4.20705 3.38777 4.59491 3.13565 5.13793 2.92425C5.5481 2.76425 6.16408 2.57516 7.29859 2.52304C8.37201 2.47456 8.788 2.46001 10.9567 2.45759V2.46049ZM18.2117 4.39262C17.4408 4.39262 16.8154 5.01734 16.8154 5.78849C16.8154 6.5594 17.4408 7.18486 18.2117 7.18486C18.9826 7.18486 19.608 6.5594 19.608 5.78849C19.608 5.01759 18.9826 4.39213 18.2117 4.39213V4.39262ZM12.0005 6.02413C8.70048 6.02413 6.02493 8.69977 6.02493 11.9999C6.02493 15.3 8.70048 17.9744 12.0005 17.9744C15.3005 17.9744 17.9751 15.3 17.9751 11.9999C17.9751 8.69977 15.3003 6.02413 12.0003 6.02413H12.0005ZM12.0005 8.1211C14.1425 8.1211 15.8792 9.85759 15.8792 11.9999C15.8792 14.1419 14.1425 15.8787 12.0005 15.8787C9.85827 15.8787 8.12184 14.1419 8.12184 11.9999C8.12184 9.85759 9.85827 8.1211 12.0005 8.1211V8.1211Z" fill="white"/>
</svg>
