<svg width="18" height="18" viewBox="0 0 18 18" fill="none" xmlns="http://www.w3.org/2000/svg">
<g id="Frame">
<path id="Vector" d="M13.5 11.8109C13.1969 11.8109 12.897 11.8723 12.6183 11.9914C12.3396 12.1105 12.0879 12.2848 11.8785 12.5039L6.67575 9.57593C6.7765 9.19752 6.7765 8.79934 6.67575 8.42093L11.8785 5.49368C12.2572 5.8865 12.7661 6.12779 13.3099 6.17234C13.8537 6.21689 14.3951 6.06164 14.8327 5.73568C15.2702 5.40972 15.5739 4.93542 15.6869 4.40161C15.7999 3.86781 15.7143 3.31113 15.4463 2.83586C15.1783 2.36058 14.7463 1.99932 14.231 1.81975C13.7158 1.64018 13.1528 1.65462 12.6474 1.86035C12.1421 2.06609 11.7291 2.44902 11.4858 2.9374C11.2425 3.42579 11.1856 3.98612 11.3258 4.51343L6.12225 7.44068C5.81142 7.11671 5.41076 6.89315 4.97183 6.79874C4.5329 6.70433 4.07576 6.74339 3.65921 6.91091C3.24266 7.07843 2.88575 7.36673 2.63438 7.73874C2.38302 8.11075 2.2487 8.54946 2.2487 8.99843C2.2487 9.4474 2.38302 9.88611 2.63438 10.2581C2.88575 10.6301 3.24266 10.9184 3.65921 11.086C4.07576 11.2535 4.5329 11.2925 4.97183 11.1981C5.41076 11.1037 5.81142 10.8801 6.12225 10.5562L11.3258 13.4834C11.2051 13.9376 11.2298 14.4182 11.3962 14.8576C11.5626 15.2971 11.8624 15.6735 12.2535 15.9339C12.6447 16.1943 13.1076 16.3257 13.5773 16.3096C14.0469 16.2936 14.4998 16.1309 14.8722 15.8443C15.2447 15.5578 15.5181 15.1619 15.6541 14.712C15.7901 14.2622 15.7818 13.7811 15.6305 13.3362C15.4791 12.8914 15.1923 12.505 14.8102 12.2315C14.4281 11.9579 13.9699 11.8109 13.5 11.8109Z" fill="#0C217A"/>
</g>
</svg>
