<svg width="22" height="19" viewBox="0 0 22 19" fill="none" xmlns="http://www.w3.org/2000/svg">
<path d="M20.4339 0.483897L1.16841 7.91463C-0.146495 8.4422 -0.138696 9.17559 0.928735 9.50262L5.73361 11.0023L7.57206 16.6389C7.79556 17.2558 7.68539 17.5005 8.33321 17.5005C8.83316 17.5005 9.05495 17.2725 9.33339 17.0005C9.51047 16.8273 10.5618 15.8051 11.7357 14.6638L16.7337 18.3565C17.6533 18.8639 18.3174 18.601 18.5464 17.5023L21.8272 2.04205C22.1631 0.695381 21.3138 0.0845408 20.4339 0.483897ZM6.48768 10.6578L17.3179 3.82491C17.8585 3.49703 18.3543 3.67331 17.9472 4.03461L8.67376 12.4016L8.31268 16.2528L6.48768 10.6578V10.6578Z" fill="white"/>
</svg>
